<svg xmlns="http://www.w3.org/2000/svg" width="11.496" height="11.496" viewBox="0 0 11.496 11.496"><defs><style>.a{fill:#fff;}</style></defs><path class="a" d="M5.748.562A5.748,5.748,0,1,0,11.5,6.311,5.748,5.748,0,0,0,5.748.562ZM9.456,5.557v.161a.359.359,0,0,1-.2.321L8.9,6.218a.359.359,0,0,1-.36-.022l-.422-.281a.36.36,0,0,0-.313-.042l-.061.02a.359.359,0,0,0-.185.54l.307.46a.359.359,0,0,0,.3.16h.19a.359.359,0,0,1,.359.359v.263a.36.36,0,0,1-.072.216l-.434.579a.361.361,0,0,0-.066.149l-.1.529a.36.36,0,0,1-.11.2,3.7,3.7,0,0,0-.579.676l-.3.453a.643.643,0,0,1-1.11-.069,1.829,1.829,0,0,1-.193-.818V8.895a.359.359,0,0,0-.359-.359h-.6A1.266,1.266,0,0,1,3.523,7.269V6.944a1.267,1.267,0,0,1,.506-1.013l.639-.48a1.267,1.267,0,0,1,.76-.253h.021a1.264,1.264,0,0,1,.566.134l.341.171a.359.359,0,0,0,.274.019l1.1-.366a.359.359,0,0,0-.114-.7H7.379a.359.359,0,0,1-.254-.105l-.16-.16a.359.359,0,0,0-.254-.105H4.624a.359.359,0,0,1-.359-.359v-.1a.359.359,0,0,1,.272-.349l.335-.084a.36.36,0,0,0,.212-.149l.187-.281a.359.359,0,0,1,.3-.16h.561a.359.359,0,0,0,.359-.359v-.5A4.642,4.642,0,0,1,10.243,5.2H9.816A.359.359,0,0,0,9.456,5.557Z" transform="translate(0 -0.563)"/></svg>