<svg xmlns="http://www.w3.org/2000/svg" xmlns:xlink="http://www.w3.org/1999/xlink" width="102.762" height="37.676" viewBox="0 0 102.762 37.676"><defs><style>.a{fill:url(#a);}.b,.c{fill:#fff;}.b{font-size:10px;font-family:Montserrat-Medium, Montserrat;font-weight:500;letter-spacing:0.012em;}.c{stroke:#fff;stroke-width:0.2px;fill-rule:evenodd;}.d{filter:url(#b);}</style><linearGradient id="a" x1="1.087" y1="0.833" x2="0.198" y2="0.811" gradientUnits="objectBoundingBox"><stop offset="0" stop-color="#35d89b"/><stop offset="1" stop-color="#00b584"/></linearGradient><filter id="b" x="0" y="0" width="102.762" height="37.676" filterUnits="userSpaceOnUse"><feOffset dy="3" input="SourceAlpha"/><feGaussianBlur stdDeviation="3" result="c"/><feFlood flood-opacity="0.271"/><feComposite operator="in" in2="c"/><feComposite in="SourceGraphic"/></filter></defs><g transform="translate(7.343 4.375)"><g class="d" transform="matrix(1, 0, 0, 1, -7.34, -4.38)"><path class="a" d="M4.863,0H79.9c2.686,0,4.863,1.762,4.863,3.935V15.741c0,2.173-2.177,3.935-4.863,3.935H4.863C2.177,19.676,0,17.914,0,15.741V3.935C0,1.762,2.177,0,4.863,0Z" transform="translate(9 6)"/></g><text class="b" transform="translate(13.226 15.148)"><tspan x="0" y="0">Pro-Verified</tspan></text><path class="c" d="M4.966.016A4.961,4.961,0,1,0,9.932,4.972,4.961,4.961,0,0,0,4.966.016ZM4.95,1.873h.165a3.616,3.616,0,0,1,2.155.67c.01.021.021.031.021.052v.5H2.651v-.5a.079.079,0,0,1,.021-.052A3.658,3.658,0,0,1,4.95,1.873ZM2.641,3.223h4.64v.392H2.641Zm0,.516h4.63V6.008a1.221,1.221,0,0,1-.361.784,4.825,4.825,0,0,1-.773.66,5.657,5.657,0,0,1-.773.464c-.113.052-.2.093-.268.124a.708.708,0,0,0-.082.031c-.01,0-.021.01-.031.01H4.96a.038.038,0,0,1-.031-.01c0,.01-.01,0-.031-.01a.607.607,0,0,1-.082-.041,1.9,1.9,0,0,1-.268-.124,6.467,6.467,0,0,1-.773-.444A4.25,4.25,0,0,1,3,6.812a1.2,1.2,0,0,1-.361-.773Zm2.331.423a1.5,1.5,0,1,0,1.505,1.5A1.49,1.49,0,0,0,4.971,4.162Zm0,.113A1.371,1.371,0,1,1,3.6,5.647,1.369,1.369,0,0,1,4.971,4.275Zm0,.361a.037.037,0,0,0-.032.021c-.01,0-.01,0-.021.01S4.9,4.688,4.9,4.7l-.206.649H4c-.052,0-.072.082-.031.113l.556.4-.216.649c-.021.052.062.114.1.073l.557-.4.556.392A.069.069,0,0,0,5.621,6.5l-.206-.649.556-.4c.031-.031.01-.113-.041-.113H5.25l-.216-.649A.065.065,0,0,0,4.971,4.636Zm0,.258.175.536a.07.07,0,0,0,.062.041h.546l-.443.32a.05.05,0,0,0-.021.062l.165.515-.443-.319a.089.089,0,0,0-.073,0L4.5,6.358l.165-.515a.059.059,0,0,0-.021-.072l-.433-.32h.546a.053.053,0,0,0,.052-.041Z" transform="translate(0 -0.016)"/></g></svg>