<svg xmlns="http://www.w3.org/2000/svg" width="161" height="29" viewBox="0 0 161 29"><defs><style>.a{fill:#fff;}</style></defs><g transform="translate(-0.109 -0.4)"><g transform="translate(131.855 0)"><circle cx="14.5" cy="14.5" r="14.5" transform="translate(0.254 0.4)"/><path class="a" d="M0,4.682A4.74,4.74,0,0,1,4.787,0,4.668,4.668,0,0,1,7.921,1.292a.317.317,0,0,1,0,.46l-.841.8a.316.316,0,0,1-.43,0A2.892,2.892,0,0,0,4.693,1.79a2.926,2.926,0,1,0,2.746,3.9H5.147a.315.315,0,0,1-.315-.316V4.214A.315.315,0,0,1,5.147,3.9H9.386s0,1.051-.007,1.082A4.693,4.693,0,0,1,0,4.682ZM12.046,6.918a.276.276,0,0,1-.275-.277V5.51H10.644a.276.276,0,0,1-.275-.277V4.281A.276.276,0,0,1,10.644,4h1.127V2.873a.276.276,0,0,1,.275-.277h.948a.276.276,0,0,1,.276.277V4H14.4a.276.276,0,0,1,.276.277v.952a.276.276,0,0,1-.276.277H13.269V6.642a.276.276,0,0,1-.276.277Z" transform="translate(7.443 9.781)"/></g><g transform="translate(88.201 0)"><circle cx="14.5" cy="14.5" r="14.5" transform="translate(-0.092 0.4)"/><path class="a" d="M8.829,12.575H3.746A3.75,3.75,0,0,1,0,8.829V3.746A3.75,3.75,0,0,1,3.746,0H8.829a3.75,3.75,0,0,1,3.746,3.746V8.829A3.75,3.75,0,0,1,8.829,12.575ZM3.746,1.265A2.484,2.484,0,0,0,1.265,3.746V8.829A2.484,2.484,0,0,0,3.746,11.31H8.829A2.484,2.484,0,0,0,11.31,8.829V3.746A2.484,2.484,0,0,0,8.829,1.265ZM6.287,9.54A3.252,3.252,0,1,1,9.54,6.287,3.256,3.256,0,0,1,6.287,9.54Zm0-5.24A1.988,1.988,0,1,0,8.275,6.287,1.989,1.989,0,0,0,6.287,4.3Zm3.259-.461a.779.779,0,1,1,.779-.779A.78.78,0,0,1,9.546,3.839Z" transform="translate(8.133 8.209)"/></g><g transform="translate(43.654 0)"><circle cx="14.5" cy="14.5" r="14.5" transform="translate(0.455 0.4)"/><path class="a" d="M12.575,1.24a5.075,5.075,0,0,1-1.482.417A2.643,2.643,0,0,0,12.227.194a5.078,5.078,0,0,1-1.639.642A2.546,2.546,0,0,0,8.706,0a2.614,2.614,0,0,0-2.58,2.645,2.741,2.741,0,0,0,.067.6A7.265,7.265,0,0,1,.876.484a2.678,2.678,0,0,0-.349,1.33,2.662,2.662,0,0,0,1.147,2.2A2.51,2.51,0,0,1,.506,3.685v.034A2.631,2.631,0,0,0,2.575,6.313a2.515,2.515,0,0,1-.68.093,2.476,2.476,0,0,1-.485-.048A2.593,2.593,0,0,0,3.82,8.2a5.1,5.1,0,0,1-3.2,1.132A5.072,5.072,0,0,1,0,9.291a7.169,7.169,0,0,0,3.955,1.189A7.391,7.391,0,0,0,11.3,2.952c0-.115,0-.228-.007-.342a5.32,5.32,0,0,0,1.287-1.369Z" transform="translate(8.666 9.257)"/></g><g transform="translate(0 0)"><circle cx="14.5" cy="14.5" r="14.5" transform="translate(0.109 0.4)"/><path class="a" d="M4.181,12.575H1.393V6.637H0V4.349H1.393V2.976C1.393,1.111,2.18,0,4.414,0h1.86V2.288H5.112c-.87,0-.928.319-.928.916l0,1.144H6.288L6.041,6.637H4.181v5.938Z" transform="translate(11.451 8.209)"/></g></g></svg>